<svg id="Capa_1" data-name="Capa 1" xmlns="http://www.w3.org/2000/svg" viewBox="0 0 841.89 595.28"><defs><style>.cls-1{fill:#3564a9;}.cls-2{fill:#5d91c8;}.cls-3{fill:#123b73;}.cls-4{fill:#cc8d7e;}.cls-5{fill:#ea9703;}.cls-6{fill:#f6b59d;}.cls-7{fill:#fad3c5;}.cls-8{fill:#e09a85;}.cls-9{fill:#2e1f10;}.cls-10{fill:#442d13;}.cls-11{fill:#fff;}.cls-12{fill:#164d98;}.cls-13{fill:#ca8a7b;}.cls-14{fill:#5c3c16;}.cls-15{fill:#a97565;}.cls-16{fill:#fbbf29;}.cls-17{fill:#cf810d;}.cls-18{fill:#ffe6a8;}.cls-19{fill:#a42e1b;}</style></defs><title>PROTEIC_Logo_AZUL_sintxt</title><rect class="cls-1" x="288.92" y="286.78" width="261.68" height="124.67"/><path class="cls-2" d="M288.92,288.87h0A48.06,48.06,0,0,1,337,240.8H434.5v48.06Z"/><path class="cls-2" d="M550.61,288.87h0a48.06,48.06,0,0,0-48.06-48.06H405v48.06Z"/><path class="cls-3" d="M501.76,254.15a13.34,13.34,0,0,0-13.34-13.34H351.12a13.34,13.34,0,0,0-13.34,13.34v157.3h164Z"/><path class="cls-4" d="M499.67,282.65a79.87,79.87,0,0,1-79.87,79.87V282.65Z"/><path class="cls-4" d="M553.22,320.55l-63.14-63.14-36.45,28.82,67,67a23.09,23.09,0,0,0,32.64,0h0A23.07,23.07,0,0,0,553.22,320.55Z"/><path class="cls-5" d="M454.07,104.62l6.27-9.47v31.79h-13A40.39,40.39,0,0,1,454.07,104.62Z"/><path class="cls-6" d="M392,248.41H404V236.5A11.91,11.91,0,0,1,392,248.41Z"/><path class="cls-6" d="M447.19,248.41h-11.9V236.5A11.91,11.91,0,0,0,447.19,248.41Z"/><path class="cls-6" d="M291,294.56h80.4V248.41H291a23.07,23.07,0,0,0-23.08,23.08h0A23.08,23.08,0,0,0,291,294.56Z"/><path class="cls-7" d="M301.44,262.84,234.6,196c-7.14-7.14,2.53,14.1-4.6,21.24a18.26,18.26,0,0,0,0,25.84l45.6,45.61a18.27,18.27,0,1,0,25.84-25.84Z"/><path class="cls-8" d="M339.88,282.65a79.87,79.87,0,0,0,79.87,79.87V282.65Z"/><rect class="cls-6" x="369.87" y="258.11" width="49.9" height="140.45"/><path class="cls-7" d="M419.77,320.58h0v78H392.53V347.82A27.24,27.24,0,0,1,419.77,320.58Z"/><path class="cls-6" d="M419.75,377.53H405a5.13,5.13,0,0,1-5.12-5.13h0a5.12,5.12,0,0,1,5.12-5.12h14.8Z"/><path class="cls-6" d="M420,351.85H405.16a5.13,5.13,0,0,1-5.13-5.13h0a5.13,5.13,0,0,1,5.13-5.12H420Z"/><path class="cls-8" d="M392.54,398.56a22.67,22.67,0,0,0-22.67-22.67v22.67Z"/><rect class="cls-8" x="419.77" y="258.11" width="49.91" height="140.45" transform="translate(889.45 656.67) rotate(180)"/><path class="cls-6" d="M419.77,320.58h0v78H447V347.82A27.24,27.24,0,0,0,419.77,320.58Z"/><path class="cls-6" d="M419.8,377.53h14.79a5.12,5.12,0,0,0,5.12-5.13h0a5.12,5.12,0,0,0-5.12-5.12H419.8Z"/><path class="cls-6" d="M419.75,351.85h14.79a5.13,5.13,0,0,0,5.12-5.13h0a5.12,5.12,0,0,0-5.12-5.12H419.75Z"/><path class="cls-4" d="M447,398.56a22.66,22.66,0,0,1,22.67-22.67v22.67Z"/><path class="cls-6" d="M422.35,302l-.35-.1c-.21-.06-.42-.1-.63-.14a9.25,9.25,0,0,0-1.59-.16h-.14a10.41,10.41,0,0,0-1.31.13,9.49,9.49,0,1,0,10.93,9.37,9.49,9.49,0,0,0-6.91-9.11Z"/><path class="cls-7" d="M371.35,248.41a31.47,31.47,0,0,0-31.47,31.47v2.71a40,40,0,0,0,39.95,39.95h0a39.82,39.82,0,0,0,31.09-14.94,9.5,9.5,0,0,1,7.41-5.89,10.3,10.3,0,0,1,1.31-.13h0V248.41Z"/><path class="cls-6" d="M468.2,248.41H419.64v53.17h.16a8.28,8.28,0,0,1,1.57.16c.21,0,.42.08.63.14l.35.1a9.48,9.48,0,0,1,6.19,5.52,39.81,39.81,0,0,0,31.18,15h0a39.94,39.94,0,0,0,39.94-39.95v-2.71A31.47,31.47,0,0,0,468.2,248.41Z"/><circle class="cls-8" cx="379.83" cy="310.82" r="7.18"/><ellipse class="cls-8" cx="459.72" cy="310.82" rx="7.18" ry="7.18"/><circle class="cls-8" cx="419.77" cy="389.33" r="6.66"/><path class="cls-8" d="M404,238.26h31.32a0,0,0,0,1,0,0v27.05A5.29,5.29,0,0,1,430,270.6H409.24a5.29,5.29,0,0,1-5.29-5.29V238.26A0,0,0,0,1,404,238.26Z"/><path class="cls-1" d="M437.9,238.72H483a2.69,2.69,0,0,1,2.69,2.69v33.83a8.15,8.15,0,0,1-8.15,8.15H446a8.14,8.14,0,0,1-8.14-8.14V238.72A0,0,0,0,1,437.9,238.72Z"/><path class="cls-2" d="M472.76,238.72H445.37v17a16.4,16.4,0,0,0,32.8,0V244.13A5.41,5.41,0,0,0,472.76,238.72Z"/><path class="cls-1" d="M362,238.72h31.46a8.15,8.15,0,0,1,8.15,8.15v33.83a2.69,2.69,0,0,1-2.69,2.69H353.89a0,0,0,0,1,0,0V246.86A8.14,8.14,0,0,1,362,238.72Z" transform="translate(755.53 522.1) rotate(-180)"/><path class="cls-2" d="M366.78,238.79h27.39v17a16.4,16.4,0,0,1-32.8,0V244.21A5.41,5.41,0,0,1,366.78,238.79Z"/><path class="cls-9" d="M456.81,258.93h0a12.86,12.86,0,0,0,12.86-12.86V172.95H443.94v73.11A12.86,12.86,0,0,0,456.81,258.93Z"/><circle class="cls-9" cx="369.87" cy="186.72" r="10.23"/><circle class="cls-9" cx="369.87" cy="207.25" r="10.23"/><path class="cls-9" d="M380.1,227.72a10.23,10.23,0,1,1-10.23-10.23A10.23,10.23,0,0,1,380.1,227.72Z"/><path class="cls-9" d="M419.75,113.78h0a49.88,49.88,0,0,0-49.88,49.88v17.1h99.76v-17.1A49.88,49.88,0,0,0,419.75,113.78Z"/><path class="cls-10" d="M438.51,128.56l.61,1-8.58,12.75a13,13,0,0,1-21.58,0l-8.58-12.75.6-1a39.46,39.46,0,0,0-20.7,34.73v13.53h78.94V163.3A39.47,39.47,0,0,0,438.51,128.56Z"/><path class="cls-9" d="M382.73,258.93h0a12.86,12.86,0,0,1-12.86-12.86V172.95H395.6v73.11A12.86,12.86,0,0,1,382.73,258.93Z"/><path class="cls-8" d="M450.65,197h0V166.33h0a8.58,8.58,0,0,1,8.58,8.58v13.53A8.58,8.58,0,0,1,450.65,197Z"/><path class="cls-6" d="M388.87,197h0V166.33h0a8.59,8.59,0,0,0-8.58,8.58v13.53A8.58,8.58,0,0,0,388.87,197Z"/><path class="cls-7" d="M388.87,206.52a52,52,0,0,0,15.22,36.75h31.33a52,52,0,0,0,15.22-36.75V166.34H388.87Z"/><path class="cls-8" d="M419.18,134.44c-17,.31-30.31,14.9-30.31,31.91h61.78C450.65,149.09,436.51,134.12,419.18,134.44Z"/><path class="cls-6" d="M419.77,188.8a10.69,10.69,0,0,1,10.68,10.68v38.15H409.1V199.48a10.69,10.69,0,0,1,10.67-10.68Zm0-5h0a15.65,15.65,0,0,0-15.65,15.65V242.6h31.3V199.48a15.66,15.66,0,0,0-15.66-15.65Z"/><path class="cls-6" d="M404.1,211.81s0,.06,0,.08l0,0Z"/><path class="cls-6" d="M435.42,211.89s0-.05,0-.08l0,0Z"/><path class="cls-8" d="M435.94,178.38h0a8.09,8.09,0,0,1-8.09-8.09v-3.35H444v3.35A8.09,8.09,0,0,1,435.94,178.38Z"/><path class="cls-8" d="M403.58,178.38h0a8.09,8.09,0,0,1-8.1-8.09v-3.35h16.18v3.35A8.09,8.09,0,0,1,403.58,178.38Z"/><path class="cls-6" d="M427.85,156.53H411.67v31.25a8.09,8.09,0,0,0,8.1,8.09h0a8.09,8.09,0,0,0,8.09-8.09Z"/><rect class="cls-6" x="408.96" y="158.06" width="22.93" height="8.28"/><path class="cls-9" d="M447.87,152.11h0l-1.73,3A16.18,16.18,0,0,1,424,160.95h0l1.74-3A16.18,16.18,0,0,1,447.87,152.11Z"/><circle class="cls-11" cx="435.94" cy="166.34" r="8.09"/><circle class="cls-12" cx="435.94" cy="166.34" r="3.35"/><path class="cls-8" d="M435.94,158.26a8.09,8.09,0,0,0-8.09,8.09H444A8.09,8.09,0,0,0,435.94,158.26Z"/><path class="cls-9" d="M415.5,161h0l-3.26,1.13a16.17,16.17,0,0,1-20.58-10h0l3.25-1.13A16.19,16.19,0,0,1,415.5,161Z"/><circle class="cls-11" cx="403.58" cy="166.34" r="8.09"/><ellipse class="cls-12" cx="403.58" cy="166.34" rx="3.35" ry="3.34"/><path class="cls-8" d="M403.58,158.26a8.09,8.09,0,0,0-8.1,8.09h16.18A8.09,8.09,0,0,0,403.58,158.26Z"/><circle class="cls-6" cx="419.92" cy="156.53" r="6.78"/><circle class="cls-7" cx="419.75" cy="183.83" r="4.23"/><path class="cls-8" d="M388.87,166.33v6.62a6.62,6.62,0,0,1,6.61-6.62Z"/><path class="cls-8" d="M450.65,166.33H444a6.62,6.62,0,0,1,6.61,6.62Z"/><path class="cls-8" d="M432.08,183.82a4.2,4.2,0,0,0-2.25-3.72v7.44A4.21,4.21,0,0,0,432.08,183.82Z"/><path class="cls-13" d="M427.85,179.59v8.47a4.19,4.19,0,0,0,2-.52v-7.44A4.19,4.19,0,0,0,427.85,179.59Z"/><path class="cls-6" d="M407.44,183.82a4.23,4.23,0,0,0,2.25,3.72v-7.44A4.23,4.23,0,0,0,407.44,183.82Z"/><path class="cls-8" d="M411.67,188.06v-8.47a4.21,4.21,0,0,0-2,.52v7.44A4.21,4.21,0,0,0,411.67,188.06Z"/><path class="cls-14" d="M409,142.31a13,13,0,0,0,21.58,0l9-13.19-1.05-.57a39.53,39.53,0,0,0-37.52,0l-1,.57Z"/><circle class="cls-10" cx="380.1" cy="186.72" r="10.23"/><circle class="cls-10" cx="380.1" cy="166.26" r="10.23"/><path class="cls-9" d="M459.45,186.72a10.22,10.22,0,1,0,10.22-10.23A10.22,10.22,0,0,0,459.45,186.72Z"/><path class="cls-9" d="M459.45,207.25A10.22,10.22,0,1,0,469.67,197,10.22,10.22,0,0,0,459.45,207.25Z"/><path class="cls-9" d="M459.45,227.72a10.22,10.22,0,1,0,10.22-10.23A10.23,10.23,0,0,0,459.45,227.72Z"/><ellipse class="cls-10" cx="459.45" cy="186.72" rx="10.22" ry="10.23"/><circle class="cls-10" cx="459.45" cy="166.26" r="10.22"/><path class="cls-10" d="M419.77,195.88a24.17,24.17,0,0,0-24.17,24.17v32.84h48.34V220.05A24.17,24.17,0,0,0,419.77,195.88Z"/><rect class="cls-15" x="404.12" y="210.87" width="31.3" height="2.04"/><path class="cls-8" d="M430.8,206.29H408.7a4.58,4.58,0,0,0-4.58,4.58h31.26A4.58,4.58,0,0,0,430.8,206.29Z"/><path class="cls-8" d="M430.8,217.49H408.7a4.58,4.58,0,0,1-4.58-4.58h31.26A4.58,4.58,0,0,1,430.8,217.49Z"/><path class="cls-10" d="M407.69,246.85H395.6v6a6,6,0,0,0,6,6h0a6,6,0,0,0,6-6Z"/><path class="cls-14" d="M419.77,246.85H407.69v6a6,6,0,0,0,6,6h0a6,6,0,0,0,6-6Z"/><path class="cls-14" d="M431.86,246.85H419.77v6a6,6,0,0,0,6,6h0a6,6,0,0,0,6-6Z"/><path class="cls-10" d="M443.94,246.85H431.86v6a6,6,0,0,0,6,6h0a6,6,0,0,0,6-6Z"/><path class="cls-14" d="M443.94,220.05a24.17,24.17,0,1,0-48.34,0v26.8h10.51v-26.8a13.67,13.67,0,1,1,27.33,0v26.8h10.5Z"/><path class="cls-10" d="M401.65,246.85h12.08v-6a6,6,0,0,0-6-6h0a6,6,0,0,0-6,6Z"/><path class="cls-9" d="M413.73,246.85h12.09v-6a6,6,0,0,0-6-6h0a6,6,0,0,0-6,6Z"/><path class="cls-10" d="M425.82,246.85H437.9v-6a6,6,0,0,0-6-6h0a6,6,0,0,0-6,6Z"/><rect class="cls-16" x="379.33" y="116.83" width="40.59" height="16.46"/><rect class="cls-5" x="419.92" y="116.83" width="40.59" height="16.46"/><path class="cls-5" d="M413.64,94.51,419.92,85v31.79h-13A40.39,40.39,0,0,1,413.64,94.51Z"/><path class="cls-17" d="M426.2,94.51,419.92,85v31.79h13A40.33,40.33,0,0,0,426.2,94.51Z"/><path class="cls-16" d="M385.61,104.62l-6.28-9.47v31.79h13A40.39,40.39,0,0,0,385.61,104.62Z"/><rect class="cls-18" x="379.33" y="111.05" width="81.17" height="5.78"/><polygon class="cls-19" points="201.86 153.39 315.77 411.44 327.2 411.44 211.42 149.16 201.86 153.39"/><rect class="cls-16" x="195.99" y="150.88" width="25.23" height="10.2" transform="translate(-45.24 97.58) rotate(-23.83)"/><rect class="cls-16" x="201.14" y="165.09" width="25.23" height="5.1" transform="translate(-49.51 100.68) rotate(-23.83)"/><rect class="cls-16" x="205.26" y="174.42" width="25.23" height="5.1" transform="translate(-52.93 103.12) rotate(-23.83)"/><path class="cls-5" d="M217.92,87.9A27.37,27.37,0,0,0,210,111.06v0l5.71-7.21,4.42,32-13,5.74-17.81-40.32,8.63,3.15h0a27.36,27.36,0,0,0-18.86-15.6,27.34,27.34,0,0,0-1.18,24.45v0l3.48-8.5,17.81,40.32L186,150.93l-20.66-24.81,9.17.64h0A27.35,27.35,0,0,0,152,117a27.35,27.35,0,0,0,5.66,23.81v0l1-9.14,22.94,27.55.06-.05,1.83,2.31,46.1-20.36-1.18-9,0,0-4.08-29.5,7.42,5.43v0A27.34,27.34,0,0,0,217.92,87.9Z"/><path class="cls-6" d="M229.72,190.75h0A36.45,36.45,0,0,0,219,216.53h21.42A36.44,36.44,0,0,0,229.72,190.75Z"/><path class="cls-8" d="M219,216.53a36.46,36.46,0,0,0,10.71,25.93h0a36.47,36.47,0,0,0,10.71-25.93Z"/><path class="cls-6" d="M531.09,323.87l-54.77,54.68s-2.7,14.37,4.43,21.5,21.62,4.54,21.62,4.54l54.57-54.88a18.27,18.27,0,0,0-25.84-25.84Z"/><circle class="cls-6" cx="481.77" cy="373.18" r="5.64"/><path class="cls-1" d="M365.18,398.56a6.45,6.45,0,0,0-6.44,6.44h0a6.45,6.45,0,0,0,6.44,6.45H419.8V398.56Z"/><path class="cls-12" d="M474.42,398.56H419.8v12.89h54.62a6.45,6.45,0,0,0,6.45-6.45h0A6.44,6.44,0,0,0,474.42,398.56Z"/><path class="cls-7" d="M502.36,404.59h0l-26-26h0a18.41,18.41,0,0,0,0,26h0A18.41,18.41,0,0,0,502.36,404.59Z"/></svg>